<svg width="20" height="20" viewBox="0 0 20 20" fill="none" xmlns="http://www.w3.org/2000/svg">
<path d="M16.4227 19.6576C12.1452 20.1141 7.85477 20.1141 3.57727 19.6576C1.87164 19.4756 0.524445 18.1284 0.342407 16.4226C-0.114136 12.1451 -0.114136 7.85477 0.342407 3.57727C0.524445 1.87164 1.87164 0.524445 3.57727 0.342407C7.85477 -0.114136 12.1451 -0.114136 16.4226 0.342407C18.1284 0.524445 19.4756 1.87164 19.6576 3.57727C20.1141 7.85477 20.1141 12.1451 19.6576 16.4226C19.4756 18.1284 18.1285 19.4756 16.4227 19.6576Z" fill="url(#paint0_linear_3_300)"/>
<path d="M18.5699 4.3007C18.4085 2.78719 17.2131 1.59166 15.6994 1.43007C11.9037 1.0251 8.0966 1.0251 4.30083 1.43007C2.78731 1.59166 1.59178 2.78719 1.43019 4.3007C1.02522 8.09648 1.02522 11.9035 1.43019 15.6992C1.59178 17.2128 2.78731 18.4084 4.30083 18.5698C8.0966 18.9749 11.9037 18.9749 15.6993 18.5698C17.213 18.4084 18.4085 17.2128 18.5699 15.6992C18.9751 11.9035 18.9751 8.09648 18.5699 4.3007Z" fill="url(#paint1_linear_3_300)"/>
<path d="M0.299805 16.008C0.313538 16.1462 0.327728 16.2845 0.342529 16.4227C0.524567 18.1284 1.87177 19.4756 3.57755 19.6576C7.85504 20.1141 12.1454 20.1141 16.4229 19.6576C18.1286 19.4756 19.4757 18.1284 19.6577 16.4227C19.6725 16.2845 19.6867 16.1462 19.7006 16.008H0.299805Z" fill="url(#paint2_linear_3_300)"/>
<path d="M19.9959 9.29718L15.8445 5.14587C15.3792 5.41183 14.9692 5.55939 14.6604 5.64117C14.4867 5.68771 14.345 5.71304 14.243 5.72693C13.7749 5.24704 13.1212 4.94904 12.3976 4.94904C10.974 4.94904 9.81967 6.10321 9.81967 7.52716C9.81967 7.57858 9.82104 7.62939 9.8244 7.68005C9.83127 7.8035 9.84698 7.9248 9.87125 8.04276C9.27692 8.03391 7.34515 7.87521 5.50281 6.29593C5.50266 6.29593 5.50266 6.29578 5.50266 6.29578H5.5025L4.63367 5.42679C4.63367 5.42679 3.61438 7.20581 5.11295 8.55576C5.17871 8.62915 5.25104 8.70163 5.33023 8.77289C5.33649 8.77991 5.34305 8.78677 5.3493 8.79379C5.15262 8.78052 4.56104 8.72162 4.21863 8.47977C4.21863 8.47977 4.14981 9.56711 5.05573 10.3676L5.78723 11.1053C5.56445 11.1238 5.31802 11.1194 5.14667 11.0443C5.14667 11.0443 5.29834 11.6884 5.88458 12.2038L6.90936 13.2339C6.29459 13.5921 5.21838 14.0402 3.80176 13.9258L10.0183 20C12.1543 19.9994 14.2902 19.8853 16.4229 19.6576C18.1287 19.4756 19.4759 18.1284 19.6579 16.4227C19.9111 14.05 20.0235 11.6733 19.9959 9.29718Z" fill="url(#paint3_linear_3_300)"/>
<path d="M16.1984 6.14716C15.7559 6.37863 15.0894 6.4856 14.8685 6.51642C14.8666 6.50574 14.8648 6.49551 14.863 6.48529C15.6142 6.02066 15.8441 5.14587 15.8441 5.14587C15.3789 5.41183 14.9689 5.55939 14.66 5.64117C14.4864 5.68771 14.3446 5.71289 14.2427 5.72693C13.7746 5.24689 13.1209 4.94904 12.3973 4.94904C10.9737 4.94904 9.81934 6.10306 9.81934 7.52716C9.81934 7.57843 9.82071 7.62939 9.82407 7.6799C9.83093 7.80334 9.84665 7.92465 9.87091 8.0426C9.18182 8.03238 6.69449 7.82104 4.63333 5.42679C4.63333 5.42679 3.48557 7.42935 5.41519 8.7973C5.41519 8.7973 4.63333 8.77289 4.21829 8.47977C4.21829 8.47977 4.09622 10.4094 6.31866 11.0197C6.31866 11.0197 5.53726 11.2154 5.14618 11.0443C5.14618 11.0443 5.53711 12.7051 7.491 12.8275C7.491 12.8275 6.08963 14.1104 3.80127 13.9258C4.92676 14.6384 6.26114 15.0508 7.6918 15.0508C11.7145 15.0508 14.9756 11.7899 14.9756 7.76718C14.9756 7.71698 14.9751 7.66678 14.9741 7.61658C14.9751 7.58682 14.9756 7.55722 14.9756 7.52716C14.9756 7.50626 14.9751 7.48535 14.9748 7.46445C15.7185 6.96884 16.1984 6.14716 16.1984 6.14716Z" fill="white"/>
<defs>
<linearGradient id="paint0_linear_3_300" x1="6.64039" y1="2.81196" x2="11.699" y2="13.635" gradientUnits="userSpaceOnUse">
<stop stop-color="#00C3FF"/>
<stop offset="1" stop-color="#00B0ED"/>
</linearGradient>
<linearGradient id="paint1_linear_3_300" x1="14.2299" y1="12.269" x2="-14.8275" y2="-3.31843" gradientUnits="userSpaceOnUse">
<stop stop-color="#00B0ED" stop-opacity="0"/>
<stop offset="1" stop-color="#00A2CE"/>
</linearGradient>
<linearGradient id="paint2_linear_3_300" x1="10.0001" y1="17.0853" x2="10.0001" y2="19.7059" gradientUnits="userSpaceOnUse">
<stop stop-color="#00B0ED" stop-opacity="0"/>
<stop offset="1" stop-color="#00A2CE"/>
</linearGradient>
<linearGradient id="paint3_linear_3_300" x1="19.1182" y1="18.831" x2="9.34759" y2="9.06036" gradientUnits="userSpaceOnUse">
<stop stop-color="#00B0ED" stop-opacity="0"/>
<stop offset="1" stop-color="#00A2CE"/>
</linearGradient>
</defs>
</svg>
